<svg id="menuBar" xmlns="http://www.w3.org/2000/svg" viewBox="0 0 63.65 68.8"><defs><style>.cls-1{fill:#00adb2;}.cls-2{fill:#fd7b59;}</style></defs><title>searchButton</title><rect x="38.65" y="40.5" width="25" height="23"/><g id="Layer_12" data-name="Layer 12"><path d="M17.27,13.81l7.05,6.11a1.55,1.55,0,0,1,.16,2.17l-0.25.29a1.54,1.54,0,0,1-2.17.15l-7-6.07" transform="translate(-0.15 -0.11)"/><path d="M0.15,9.29a9.18,9.18,0,1,1,9.18,9.18A9.18,9.18,0,0,1,.15,9.29h0ZM9.44,16A6.71,6.71,0,1,0,2.73,9.29h0A6.71,6.71,0,0,0,9.44,16Z" transform="translate(-0.15 -0.11)"/></g><g id="Layer_12-2" data-name="Layer 12"><path class="cls-1" d="M17.27,36.81l7.05,6.11a1.55,1.55,0,0,1,.16,2.17l-0.25.29a1.54,1.54,0,0,1-2.17.15l-7-6.07" transform="translate(-0.15 -0.11)"/><path class="cls-1" d="M0.15,32.29a9.18,9.18,0,1,1,9.18,9.18A9.18,9.18,0,0,1,.15,32.29h0ZM9.44,39a6.71,6.71,0,1,0-6.71-6.71h0A6.71,6.71,0,0,0,9.44,39Z" transform="translate(-0.15 -0.11)"/></g><g id="Layer_12-3" data-name="Layer 12"><path class="cls-2" d="M17.27,59.81l7.05,6.11a1.55,1.55,0,0,1,.16,2.17l-0.25.29a1.54,1.54,0,0,1-2.17.15l-7-6.07" transform="translate(-0.15 -0.11)"/><path class="cls-2" d="M0.15,55.29a9.18,9.18,0,1,1,9.18,9.18A9.18,9.18,0,0,1,.15,55.29h0ZM9.44,62a6.71,6.71,0,1,0-6.71-6.71h0A6.71,6.71,0,0,0,9.44,62Z" transform="translate(-0.15 -0.11)"/></g></svg>